<mxfile host="app.diagrams.net" modified="2024-06-21T22:48:44.967Z" agent="Mozilla/5.0 (X11; Linux x86_64) AppleWebKit/537.36 (KHTML, like Gecko) Chrome/124.0.0.0 Safari/537.36" etag="KCWIqJVJp3WeJHYJLuQw" version="24.6.1" type="google">
  <diagram id="C5RBs43oDa-KdzZeNtuy" name="Page-1">
    <mxGraphModel grid="1" page="1" gridSize="10" guides="1" tooltips="1" connect="1" arrows="1" fold="1" pageScale="1" pageWidth="827" pageHeight="1169" math="0" shadow="0">
      <root>
        <mxCell id="WIyWlLk6GJQsqaUBKTNV-0" />
        <mxCell id="WIyWlLk6GJQsqaUBKTNV-1" parent="WIyWlLk6GJQsqaUBKTNV-0" />
        <mxCell id="5yX12SplNettPFv9PZgu-11" value="" style="shape=ext;double=1;rounded=1;whiteSpace=wrap;html=1;fillColor=#99CCFF;" vertex="1" parent="WIyWlLk6GJQsqaUBKTNV-1">
          <mxGeometry x="40" y="21" width="760" height="609" as="geometry" />
        </mxCell>
        <mxCell id="5yX12SplNettPFv9PZgu-41" value="" style="rounded=1;whiteSpace=wrap;html=1;strokeWidth=2;fillWeight=4;hachureGap=8;hachureAngle=45;fillColor=#009900;sketch=1;" vertex="1" parent="WIyWlLk6GJQsqaUBKTNV-1">
          <mxGeometry x="200" y="110" width="590" height="490" as="geometry" />
        </mxCell>
        <mxCell id="5yX12SplNettPFv9PZgu-15" value="" style="shape=ext;double=1;rounded=0;whiteSpace=wrap;html=1;align=center;" vertex="1" parent="WIyWlLk6GJQsqaUBKTNV-1">
          <mxGeometry x="540" y="280" width="240" height="180" as="geometry" />
        </mxCell>
        <mxCell id="5yX12SplNettPFv9PZgu-32" style="edgeStyle=orthogonalEdgeStyle;rounded=0;orthogonalLoop=1;jettySize=auto;html=1;" edge="1" parent="WIyWlLk6GJQsqaUBKTNV-1" source="5yX12SplNettPFv9PZgu-16" target="5yX12SplNettPFv9PZgu-23">
          <mxGeometry relative="1" as="geometry" />
        </mxCell>
        <UserObject label="&lt;b style=&quot;font-weight:normal;&quot; id=&quot;docs-internal-guid-5fdfe7ac-7fff-1659-0325-1ee77e289a2b&quot;&gt;&lt;img width=&quot;45px;&quot; height=&quot;45px;&quot; src=&quot;https://lh7-us.googleusercontent.com/slidesz/AGV_vUd3dKQBJTdxgp6uiI_hlELxMwT_KbczcjplvYYkk5TmkHq_bcpuHGwIEZUq_AT1uNawVVGs6wYQ6irzi9JkrbOlfEh9S4JGdVZ_K5EIGIRMXFEI1RuekHi9SFxRgp8rh4zf7qvtlqbRfdWrz-a6zi2jIqYMVpnW=s2048?key=HlGHz7GLxUE4mLiwRD8bgA&quot;&gt;&lt;/b&gt;" link="&lt;b style=&quot;font-weight:normal;&quot; id=&quot;docs-internal-guid-5fdfe7ac-7fff-1659-0325-1ee77e289a2b&quot;&gt;&lt;img width=&quot;45px;&quot; height=&quot;45px;&quot; src=&quot;https://lh7-us.googleusercontent.com/slidesz/AGV_vUd3dKQBJTdxgp6uiI_hlELxMwT_KbczcjplvYYkk5TmkHq_bcpuHGwIEZUq_AT1uNawVVGs6wYQ6irzi9JkrbOlfEh9S4JGdVZ_K5EIGIRMXFEI1RuekHi9SFxRgp8rh4zf7qvtlqbRfdWrz-a6zi2jIqYMVpnW=s2048?key=HlGHz7GLxUE4mLiwRD8bgA&quot;&gt;&lt;/b&gt;" id="5yX12SplNettPFv9PZgu-16">
          <mxCell style="text;whiteSpace=wrap;html=1;" vertex="1" parent="WIyWlLk6GJQsqaUBKTNV-1">
            <mxGeometry x="570" y="355" width="60" height="60" as="geometry" />
          </mxCell>
        </UserObject>
        <mxCell id="5yX12SplNettPFv9PZgu-18" value="" style="shape=ext;double=1;rounded=1;whiteSpace=wrap;html=1;fillColor=#FFFFFF;" vertex="1" parent="WIyWlLk6GJQsqaUBKTNV-1">
          <mxGeometry x="220" y="175" width="300" height="150" as="geometry" />
        </mxCell>
        <mxCell id="5yX12SplNettPFv9PZgu-48" style="edgeStyle=orthogonalEdgeStyle;rounded=0;orthogonalLoop=1;jettySize=auto;html=1;" edge="1" parent="WIyWlLk6GJQsqaUBKTNV-1" source="5yX12SplNettPFv9PZgu-19" target="5yX12SplNettPFv9PZgu-45">
          <mxGeometry relative="1" as="geometry" />
        </mxCell>
        <UserObject label="&lt;b style=&quot;font-weight:normal;&quot; id=&quot;docs-internal-guid-e93f05c1-7fff-336d-de23-e6e1be0deb56&quot;&gt;&lt;img width=&quot;45px;&quot; height=&quot;36px;&quot; src=&quot;https://lh7-us.googleusercontent.com/slidesz/AGV_vUfNnLK49lolya_54kQGXMdNeo8roZgLFdViNDj64JISBaoIvYltFTFrEcT2e6iwBCFHcVo0wNKk_7Fimu6jDOiuwvhgqdVnCTpLpgHwCSQLeD7icOAazDUnzju0GTgxu2G-3DS2Owznlw1bdgk9GYcjdVq5YYc=s2048?key=HlGHz7GLxUE4mLiwRD8bgA&quot;&gt;&lt;/b&gt;" link="&lt;b style=&quot;font-weight:normal;&quot; id=&quot;docs-internal-guid-e93f05c1-7fff-336d-de23-e6e1be0deb56&quot;&gt;&lt;img width=&quot;45px;&quot; height=&quot;36px;&quot; src=&quot;https://lh7-us.googleusercontent.com/slidesz/AGV_vUfNnLK49lolya_54kQGXMdNeo8roZgLFdViNDj64JISBaoIvYltFTFrEcT2e6iwBCFHcVo0wNKk_7Fimu6jDOiuwvhgqdVnCTpLpgHwCSQLeD7icOAazDUnzju0GTgxu2G-3DS2Owznlw1bdgk9GYcjdVq5YYc=s2048?key=HlGHz7GLxUE4mLiwRD8bgA&quot;&gt;&lt;/b&gt;" id="5yX12SplNettPFv9PZgu-19">
          <mxCell style="text;whiteSpace=wrap;html=1;" vertex="1" parent="WIyWlLk6GJQsqaUBKTNV-1">
            <mxGeometry x="270" y="225" width="60" height="60" as="geometry" />
          </mxCell>
        </UserObject>
        <mxCell id="5yX12SplNettPFv9PZgu-21" value="Cloud Storage" style="text;whiteSpace=wrap;" vertex="1" parent="WIyWlLk6GJQsqaUBKTNV-1">
          <mxGeometry x="255" y="275" width="110" height="40" as="geometry" />
        </mxCell>
        <mxCell id="5yX12SplNettPFv9PZgu-22" value="BigQuery" style="text;whiteSpace=wrap;" vertex="1" parent="WIyWlLk6GJQsqaUBKTNV-1">
          <mxGeometry x="570" y="415" width="80" height="40" as="geometry" />
        </mxCell>
        <UserObject label="&lt;b style=&quot;font-weight:normal;&quot; id=&quot;docs-internal-guid-bb33ac9b-7fff-fe23-7293-b4f1d35a637f&quot;&gt;&lt;img width=&quot;51px;&quot; height=&quot;51px;&quot; src=&quot;https://lh7-us.googleusercontent.com/slidesz/AGV_vUdXtPRianAtsSaMzzcZrZnpraVQc0N-iucKHmZPz62ePJ5BOohVFDlUFLd3SbApkNQ8_3nJEUyFp_MVvpRQfk_lufTk-ikV94kERgC-RW-nrv9FEDfd6tjmEGAqyXKtCGmMoDAtjXwDgutU_4JJMnUT7mGqFtwB=s2048?key=HlGHz7GLxUE4mLiwRD8bgA&quot;&gt;&lt;/b&gt;" link="&lt;b style=&quot;font-weight:normal;&quot; id=&quot;docs-internal-guid-bb33ac9b-7fff-fe23-7293-b4f1d35a637f&quot;&gt;&lt;img width=&quot;51px;&quot; height=&quot;51px;&quot; src=&quot;https://lh7-us.googleusercontent.com/slidesz/AGV_vUdXtPRianAtsSaMzzcZrZnpraVQc0N-iucKHmZPz62ePJ5BOohVFDlUFLd3SbApkNQ8_3nJEUyFp_MVvpRQfk_lufTk-ikV94kERgC-RW-nrv9FEDfd6tjmEGAqyXKtCGmMoDAtjXwDgutU_4JJMnUT7mGqFtwB=s2048?key=HlGHz7GLxUE4mLiwRD8bgA&quot;&gt;&lt;/b&gt;" id="5yX12SplNettPFv9PZgu-23">
          <mxCell style="text;whiteSpace=wrap;html=1;" vertex="1" parent="WIyWlLk6GJQsqaUBKTNV-1">
            <mxGeometry x="700" y="355" width="80" height="60" as="geometry" />
          </mxCell>
        </UserObject>
        <mxCell id="5yX12SplNettPFv9PZgu-24" value="Looker" style="text;whiteSpace=wrap;" vertex="1" parent="WIyWlLk6GJQsqaUBKTNV-1">
          <mxGeometry x="700" y="415" width="70" height="40" as="geometry" />
        </mxCell>
        <mxCell id="5yX12SplNettPFv9PZgu-25" value="&lt;font face=&quot;Courier New&quot; style=&quot;font-size: 18px;&quot;&gt;Administración Nacional de Aviación Civil&lt;/font&gt;" style="ellipse;shape=doubleEllipse;whiteSpace=wrap;html=1;" vertex="1" parent="WIyWlLk6GJQsqaUBKTNV-1">
          <mxGeometry x="70" y="30" width="700" height="90" as="geometry" />
        </mxCell>
        <UserObject label="&lt;span style=&quot;font-family: &amp;quot;Courier New&amp;quot;;&quot;&gt;Almacenamos la data&amp;nbsp;&lt;/span&gt;&lt;div&gt;&lt;span style=&quot;font-family: &amp;quot;Courier New&amp;quot;;&quot;&gt;&amp;nbsp; &amp;nbsp; &amp;nbsp; &amp;nbsp; &amp;nbsp; &amp;nbsp; &amp;nbsp; &amp;nbsp; &amp;nbsp; &amp;nbsp; &amp;nbsp; &amp;nbsp;y la visualizamos&lt;/span&gt;&lt;/div&gt;" placeholders="1" name="Variable" id="5yX12SplNettPFv9PZgu-28">
          <mxCell style="text;html=1;strokeColor=none;fillColor=none;align=center;verticalAlign=middle;whiteSpace=wrap;overflow=hidden;" vertex="1" parent="WIyWlLk6GJQsqaUBKTNV-1">
            <mxGeometry x="475" y="305" width="310" height="60" as="geometry" />
          </mxCell>
        </UserObject>
        <mxCell id="5yX12SplNettPFv9PZgu-37" style="edgeStyle=orthogonalEdgeStyle;rounded=0;orthogonalLoop=1;jettySize=auto;html=1;" edge="1" parent="WIyWlLk6GJQsqaUBKTNV-1" source="5yX12SplNettPFv9PZgu-33" target="5yX12SplNettPFv9PZgu-18">
          <mxGeometry relative="1" as="geometry" />
        </mxCell>
        <mxCell id="5yX12SplNettPFv9PZgu-33" value="&lt;b&gt;&lt;font face=&quot;Courier New&quot; style=&quot;font-size: 14px;&quot;&gt;DATOS&lt;br&gt;CRUDOS&lt;/font&gt;&lt;/b&gt;&lt;div&gt;&lt;b&gt;&lt;font face=&quot;Courier New&quot; style=&quot;font-size: 14px;&quot;&gt;ARCHIVOS&lt;/font&gt;&lt;/b&gt;&lt;/div&gt;&lt;div&gt;&lt;b&gt;&lt;font face=&quot;Courier New&quot; style=&quot;font-size: 14px;&quot;&gt;CSV&lt;/font&gt;&lt;/b&gt;&lt;/div&gt;&lt;div&gt;&lt;b&gt;&lt;font face=&quot;Courier New&quot; style=&quot;font-size: 14px;&quot;&gt;PARQUET&lt;/font&gt;&lt;/b&gt;&lt;/div&gt;" style="rounded=1;whiteSpace=wrap;html=1;strokeWidth=2;fillWeight=4;hachureGap=8;hachureAngle=45;fillColor=#EA6B66;sketch=1;" vertex="1" parent="WIyWlLk6GJQsqaUBKTNV-1">
          <mxGeometry x="50" y="205" width="120" height="160" as="geometry" />
        </mxCell>
        <UserObject label="&lt;span style=&quot;font-family: &amp;quot;Courier New&amp;quot;;&quot;&gt;Ingresamos la data&amp;nbsp;&lt;/span&gt;&lt;div&gt;&lt;span style=&quot;font-family: &amp;quot;Courier New&amp;quot;;&quot;&gt;&amp;nbsp; &amp;nbsp; &amp;nbsp; &amp;nbsp; &amp;nbsp; &amp;nbsp; &amp;nbsp; &amp;nbsp; &amp;nbsp; &amp;nbsp; &amp;nbsp; &amp;nbsp;y la transformamos&lt;/span&gt;&lt;/div&gt;" placeholders="1" name="Variable" id="5yX12SplNettPFv9PZgu-34">
          <mxCell style="text;html=1;strokeColor=none;fillColor=none;align=center;verticalAlign=middle;whiteSpace=wrap;overflow=hidden;" vertex="1" parent="WIyWlLk6GJQsqaUBKTNV-1">
            <mxGeometry x="180" y="175" width="310" height="60" as="geometry" />
          </mxCell>
        </UserObject>
        <mxCell id="5yX12SplNettPFv9PZgu-39" value="" style="edgeStyle=segmentEdgeStyle;endArrow=classic;html=1;curved=0;rounded=0;endSize=8;startSize=8;exitX=0.5;exitY=1;exitDx=0;exitDy=0;entryX=0.013;entryY=0.535;entryDx=0;entryDy=0;entryPerimeter=0;" edge="1" parent="WIyWlLk6GJQsqaUBKTNV-1" source="5yX12SplNettPFv9PZgu-18" target="5yX12SplNettPFv9PZgu-15">
          <mxGeometry width="50" height="50" relative="1" as="geometry">
            <mxPoint x="390" y="305" as="sourcePoint" />
            <mxPoint x="440" y="255" as="targetPoint" />
            <Array as="points">
              <mxPoint x="370" y="367" />
            </Array>
          </mxGeometry>
        </mxCell>
        <mxCell id="5yX12SplNettPFv9PZgu-63" style="edgeStyle=orthogonalEdgeStyle;rounded=0;orthogonalLoop=1;jettySize=auto;html=1;" edge="1" parent="WIyWlLk6GJQsqaUBKTNV-1" source="5yX12SplNettPFv9PZgu-44" target="5yX12SplNettPFv9PZgu-51">
          <mxGeometry relative="1" as="geometry" />
        </mxCell>
        <mxCell id="5yX12SplNettPFv9PZgu-44" value="&lt;font face=&quot;Courier New&quot;&gt;&lt;span style=&quot;font-size: 14px;&quot;&gt;&lt;b&gt;UBICACION&lt;/b&gt;&lt;/span&gt;&lt;/font&gt;&lt;div&gt;&lt;font face=&quot;Courier New&quot;&gt;&lt;span style=&quot;font-size: 14px;&quot;&gt;&lt;b&gt;DE LAS&lt;/b&gt;&lt;/span&gt;&lt;/font&gt;&lt;/div&gt;&lt;div&gt;&lt;font face=&quot;Courier New&quot;&gt;&lt;span style=&quot;font-size: 14px;&quot;&gt;&lt;b&gt;AERONAVES&lt;/b&gt;&lt;/span&gt;&lt;/font&gt;&lt;/div&gt;&lt;div&gt;&lt;font face=&quot;Courier New&quot;&gt;&lt;span style=&quot;font-size: 14px;&quot;&gt;&lt;b&gt;EN TIEMPO&lt;/b&gt;&lt;/span&gt;&lt;/font&gt;&lt;/div&gt;&lt;div&gt;&lt;font face=&quot;Courier New&quot;&gt;&lt;span style=&quot;font-size: 14px;&quot;&gt;&lt;b&gt;REAL&lt;/b&gt;&lt;/span&gt;&lt;/font&gt;&lt;/div&gt;" style="rounded=1;whiteSpace=wrap;html=1;strokeWidth=2;fillWeight=4;hachureGap=8;hachureAngle=45;fillColor=#EA6B66;sketch=1;" vertex="1" parent="WIyWlLk6GJQsqaUBKTNV-1">
          <mxGeometry x="50" y="385" width="120" height="160" as="geometry" />
        </mxCell>
        <UserObject label="&lt;b style=&quot;font-weight:normal;&quot; id=&quot;docs-internal-guid-4bc46a7a-7fff-5746-4d91-fe89a608815f&quot;&gt;&lt;img width=&quot;39px;&quot; height=&quot;39px;&quot; src=&quot;https://lh7-us.googleusercontent.com/slidesz/AGV_vUdeB-S4G90qq_M3yyAJD2iR8ujFGPJwjawdoK0nw7jrkbuKh9qyl20Hrht_vV5nUCdzOghJHCcnif3tOAbKNQYFoppQjLxOrBw1L1MUeGXRxSUEgMDc6rpfAtfjHFlOj-Ym1kvXR9UdDrR4KeBoit-bmE_Ube0L=s2048?key=HlGHz7GLxUE4mLiwRD8bgA&quot;&gt;&lt;/b&gt;" link="&lt;b style=&quot;font-weight:normal;&quot; id=&quot;docs-internal-guid-4bc46a7a-7fff-5746-4d91-fe89a608815f&quot;&gt;&lt;img width=&quot;39px;&quot; height=&quot;39px;&quot; src=&quot;https://lh7-us.googleusercontent.com/slidesz/AGV_vUdeB-S4G90qq_M3yyAJD2iR8ujFGPJwjawdoK0nw7jrkbuKh9qyl20Hrht_vV5nUCdzOghJHCcnif3tOAbKNQYFoppQjLxOrBw1L1MUeGXRxSUEgMDc6rpfAtfjHFlOj-Ym1kvXR9UdDrR4KeBoit-bmE_Ube0L=s2048?key=HlGHz7GLxUE4mLiwRD8bgA&quot;&gt;&lt;/b&gt;" id="5yX12SplNettPFv9PZgu-45">
          <mxCell style="text;whiteSpace=wrap;html=1;" vertex="1" parent="WIyWlLk6GJQsqaUBKTNV-1">
            <mxGeometry x="400" y="220" width="90" height="70" as="geometry" />
          </mxCell>
        </UserObject>
        <mxCell id="5yX12SplNettPFv9PZgu-46" value="Dataproc" style="text;whiteSpace=wrap;" vertex="1" parent="WIyWlLk6GJQsqaUBKTNV-1">
          <mxGeometry x="395" y="275" width="80" height="40" as="geometry" />
        </mxCell>
        <mxCell id="5yX12SplNettPFv9PZgu-51" value="" style="shape=ext;double=1;rounded=1;whiteSpace=wrap;html=1;fillColor=#FFFFFF;" vertex="1" parent="WIyWlLk6GJQsqaUBKTNV-1">
          <mxGeometry x="220" y="425" width="300" height="150" as="geometry" />
        </mxCell>
        <UserObject label="&lt;font face=&quot;Courier New&quot;&gt;Creamos un pipeline en tiempo real&lt;/font&gt;&lt;div&gt;&lt;font face=&quot;Courier New&quot;&gt;y lo enviamos al Data Warehouse&lt;/font&gt;&lt;/div&gt;" placeholders="1" name="Variable" id="5yX12SplNettPFv9PZgu-53">
          <mxCell style="text;html=1;strokeColor=none;fillColor=none;align=center;verticalAlign=middle;whiteSpace=wrap;overflow=hidden;" vertex="1" parent="WIyWlLk6GJQsqaUBKTNV-1">
            <mxGeometry x="215" y="425" width="310" height="60" as="geometry" />
          </mxCell>
        </UserObject>
        <mxCell id="5yX12SplNettPFv9PZgu-68" style="edgeStyle=orthogonalEdgeStyle;rounded=0;orthogonalLoop=1;jettySize=auto;html=1;entryX=0;entryY=0.5;entryDx=0;entryDy=0;" edge="1" parent="WIyWlLk6GJQsqaUBKTNV-1" source="5yX12SplNettPFv9PZgu-57" target="5yX12SplNettPFv9PZgu-59">
          <mxGeometry relative="1" as="geometry" />
        </mxCell>
        <UserObject label="&lt;b style=&quot;font-weight:normal;&quot; id=&quot;docs-internal-guid-52246290-7fff-4025-e738-df95f1eba5c0&quot;&gt;&lt;img width=&quot;41px;&quot; height=&quot;45px;&quot; src=&quot;https://lh7-us.googleusercontent.com/slidesz/AGV_vUd4j0zWuSOLHbfObr0S7QtlYuydu0FJ0Yc5AHRdVi-aWo20O4vsM8HY604FSfJK4Yc1GdKZm_Znlt4wHq5FHd9dnzuao4SETtFCEkXI68WOL4tYwwZvehxL_Jp7dbB2IiCpRiM2LNz5KqX9oSvcWC-Od3o931c=s2048?key=HlGHz7GLxUE4mLiwRD8bgA&quot;&gt;&lt;/b&gt;" link="&lt;b style=&quot;font-weight:normal;&quot; id=&quot;docs-internal-guid-52246290-7fff-4025-e738-df95f1eba5c0&quot;&gt;&lt;img width=&quot;41px;&quot; height=&quot;45px;&quot; src=&quot;https://lh7-us.googleusercontent.com/slidesz/AGV_vUd4j0zWuSOLHbfObr0S7QtlYuydu0FJ0Yc5AHRdVi-aWo20O4vsM8HY604FSfJK4Yc1GdKZm_Znlt4wHq5FHd9dnzuao4SETtFCEkXI68WOL4tYwwZvehxL_Jp7dbB2IiCpRiM2LNz5KqX9oSvcWC-Od3o931c=s2048?key=HlGHz7GLxUE4mLiwRD8bgA&quot;&gt;&lt;/b&gt;" id="5yX12SplNettPFv9PZgu-57">
          <mxCell style="text;whiteSpace=wrap;html=1;" vertex="1" parent="WIyWlLk6GJQsqaUBKTNV-1">
            <mxGeometry x="270" y="480" width="50" height="55" as="geometry" />
          </mxCell>
        </UserObject>
        <mxCell id="5yX12SplNettPFv9PZgu-58" value="Pub/Sub" style="text;whiteSpace=wrap;" vertex="1" parent="WIyWlLk6GJQsqaUBKTNV-1">
          <mxGeometry x="260" y="535" width="80" height="40" as="geometry" />
        </mxCell>
        <UserObject label="&lt;b style=&quot;font-weight:normal;&quot; id=&quot;docs-internal-guid-9c69ce7f-7fff-ea2d-51a2-da341c5eb4a8&quot;&gt;&lt;img width=&quot;36px;&quot; height=&quot;49px;&quot; src=&quot;https://lh7-us.googleusercontent.com/slidesz/AGV_vUeIICu8wkom8E572Obo6wpNJNuCrpewSl_WTqiBLdFs67RFskBKDtA51M7CzZqMvAX-dKIpGnSXS9yklrCktte_NspUsszUYflEU1vCZt8TnyB0MXWvnqykLfHoachUI-ystQSJHhqGK13TW5Ag4LCdINoo9Qxm=s2048?key=HlGHz7GLxUE4mLiwRD8bgA&quot;&gt;&lt;/b&gt;" link="&lt;b style=&quot;font-weight:normal;&quot; id=&quot;docs-internal-guid-9c69ce7f-7fff-ea2d-51a2-da341c5eb4a8&quot;&gt;&lt;img width=&quot;36px;&quot; height=&quot;49px;&quot; src=&quot;https://lh7-us.googleusercontent.com/slidesz/AGV_vUeIICu8wkom8E572Obo6wpNJNuCrpewSl_WTqiBLdFs67RFskBKDtA51M7CzZqMvAX-dKIpGnSXS9yklrCktte_NspUsszUYflEU1vCZt8TnyB0MXWvnqykLfHoachUI-ystQSJHhqGK13TW5Ag4LCdINoo9Qxm=s2048?key=HlGHz7GLxUE4mLiwRD8bgA&quot;&gt;&lt;/b&gt;" id="5yX12SplNettPFv9PZgu-59">
          <mxCell style="text;whiteSpace=wrap;html=1;" vertex="1" parent="WIyWlLk6GJQsqaUBKTNV-1">
            <mxGeometry x="394" y="477.5" width="40" height="60" as="geometry" />
          </mxCell>
        </UserObject>
        <mxCell id="5yX12SplNettPFv9PZgu-61" value="Dataflow" style="text;whiteSpace=wrap;" vertex="1" parent="WIyWlLk6GJQsqaUBKTNV-1">
          <mxGeometry x="390" y="545" width="80" height="40" as="geometry" />
        </mxCell>
        <mxCell id="5yX12SplNettPFv9PZgu-66" style="edgeStyle=orthogonalEdgeStyle;rounded=0;orthogonalLoop=1;jettySize=auto;html=1;entryX=0.225;entryY=0.995;entryDx=0;entryDy=0;entryPerimeter=0;" edge="1" parent="WIyWlLk6GJQsqaUBKTNV-1" source="5yX12SplNettPFv9PZgu-51" target="5yX12SplNettPFv9PZgu-15">
          <mxGeometry relative="1" as="geometry" />
        </mxCell>
        <UserObject label="&lt;font style=&quot;font-size: 24px;&quot; face=&quot;Courier New&quot;&gt;ENTONRNO DE GOOGLE CLOUD PROVIDER&lt;/font&gt;" placeholders="1" name="Variable" id="5yX12SplNettPFv9PZgu-69">
          <mxCell style="text;html=1;strokeColor=none;fillColor=none;align=center;verticalAlign=middle;whiteSpace=wrap;overflow=hidden;" vertex="1" parent="WIyWlLk6GJQsqaUBKTNV-1">
            <mxGeometry x="237.5" y="114" width="515" height="70" as="geometry" />
          </mxCell>
        </UserObject>
      </root>
    </mxGraphModel>
  </diagram>
</mxfile>
